<?xml version="1.0" encoding="UTF-8"?>
<svg data-bbox="1 1 222.19 222.19" viewBox="0 0 224.19 224.19" xmlns="http://www.w3.org/2000/svg" data-type="ugc">
    <g>
        <path fill="#f9edf0" opacity=".07" d="M223.19 62.75v98.69c0 34.104-27.646 61.75-61.75 61.75H62.75C28.646 223.19 1 195.544 1 161.44V62.75C1 28.646 28.646 1 62.75 1h98.69c34.104 0 61.75 27.646 61.75 61.75"/>
        <path fill="none" stroke="#d9d9d9" stroke-miterlimit="10" stroke-width="2" d="M223.19 62.75v98.69c0 34.104-27.646 61.75-61.75 61.75H62.75C28.646 223.19 1 195.544 1 161.44V62.75C1 28.646 28.646 1 62.75 1h98.69c34.104 0 61.75 27.646 61.75 61.75z"/>
        <text transform="translate(44.53 137.44)" style="font-variation-settings:&quot;wght&quot;800,&quot;opsz&quot;11" font-family="BodoniModa-ExtraBold,&quot;Bodoni Moda&quot;" font-size="76.68" font-weight="700" fill="#f6f6f6"><tspan y="0" x="0">+70</tspan></text>
        <text transform="translate(24.35 54.36)" fill="#f6f6f6" font-family="Montserrat-SemiBold,Montserrat" font-size="21.16" font-weight="600"><tspan y="0" x="0">Glo</tspan><tspan y="0" x="36.1" letter-spacing="0">b</tspan><tspan y="0" x="50.47">al p</tspan><tspan y="0" x="89.79" letter-spacing="0">r</tspan><tspan y="0" x="98.46">ese</tspan><tspan y="0" x="135.68" letter-spacing="0">n</tspan><tspan y="0" x="150.2" letter-spacing="0">c</tspan><tspan y="0" x="162.33">e</tspan></text>
        <text transform="translate(45.1 169.01)" fill="#f6f6f6" font-family="Montserrat-Medium,Montserrat" font-size="16" font-weight="500"><tspan y="0" x="0" letter-spacing="-.02em">C</tspan><tspan y="0" x="11.22">ount</tspan><tspan y="0" x="49.73" letter-spacing="0">r</tspan><tspan y="0" x="56.18">ies whe</tspan><tspan y="0" x="117.82" letter-spacing="-.01em">r</tspan><tspan y="0" x="124.19">e </tspan><tspan y="19.2" x="-10.34">our b</tspan><tspan y="19.2" x="32.42" letter-spacing="-.05em">r</tspan><tspan y="19.2" x="38.25">ands ope</tspan><tspan y="19.2" x="112.81" letter-spacing="-.05em">r</tspan><tspan y="19.2" x="118.63">a</tspan><tspan y="19.2" x="128.2" letter-spacing="-.02em">t</tspan><tspan y="19.2" x="134.54">e</tspan></text>
    </g>
</svg>
