<?xml version="1.0" encoding="UTF-8"?>
<svg data-bbox="1 1 222.19 222.19" viewBox="0 0 224.19 224.19" xmlns="http://www.w3.org/2000/svg" data-type="ugc">
    <g>
        <path d="M223.19 62.75v98.69c0 34.1-27.65 61.75-61.75 61.75H62.75C28.65 223.19 1 195.54 1 161.44V62.75C1 28.65 28.65 1 62.75 1h98.69c34.1 0 61.75 27.65 61.75 61.75" style="isolation:isolate" fill="#f9edf0" opacity=".07"/>
        <path d="M223.19 62.75v98.69c0 34.1-27.65 61.75-61.75 61.75H62.75C28.65 223.19 1 195.54 1 161.44V62.75C1 28.65 28.65 1 62.75 1h98.69c34.1 0 61.75 27.65 61.75 61.75Z" fill="none" stroke="#d9d9d9" stroke-miterlimit="10" stroke-width="2"/>
        <text transform="translate(53.45 134.18)" style="isolation:isolate" font-family="BodoniMT-Bold,&quot;Bodoni MT&quot;" font-size="95" font-weight="700" fill="#f6f6f6"><tspan y="0" x="0">9,5</tspan></text>
        <g style="isolation:isolate">
            <text transform="translate(13.46 54.63)" style="isolation:isolate" fill="#f6f6f6" font-family="Montserrat-SemiBold,Montserrat" font-size="20.1" font-weight="600"><tspan y="0" x="0">O</tspan></text>
            <text transform="translate(30.39 54.63)" style="isolation:isolate" fill="#f6f6f6" letter-spacing="-.01em" font-family="Montserrat-SemiBold,Montserrat" font-size="20.1" font-weight="600"><tspan y="0" x="0">v</tspan></text>
            <text transform="translate(41.71 54.63)" style="isolation:isolate" fill="#f6f6f6" font-family="Montserrat-SemiBold,Montserrat" font-size="20.1" font-weight="600"><tspan y="0" x="0">e</tspan></text>
            <text transform="translate(54.21 54.63)" style="isolation:isolate" fill="#f6f6f6" font-family="Montserrat-SemiBold,Montserrat" font-size="20.1" font-weight="600" letter-spacing="-.04em"><tspan y="0" x="0">r</tspan></text>
            <text transform="translate(61.79 54.63)" style="isolation:isolate" fill="#f6f6f6" font-family="Montserrat-SemiBold,Montserrat" font-size="20.1" font-weight="600"><tspan y="0" x="0">all satis</tspan></text>
            <text transform="translate(138.4 54.63)" style="isolation:isolate" fill="#f6f6f6" font-family="Montserrat-SemiBold,Montserrat" font-size="20.1" font-weight="600" letter-spacing="0"><tspan y="0" x="0">f</tspan></text>
            <text transform="translate(145.62 54.63)" style="isolation:isolate" fill="#f6f6f6" font-family="Montserrat-SemiBold,Montserrat" font-size="20.1" font-weight="600"><tspan y="0" x="0">a</tspan></text>
            <text transform="translate(157.84 54.63)" style="isolation:isolate" fill="#f6f6f6" font-family="Montserrat-SemiBold,Montserrat" font-size="20.1" font-weight="600"><tspan y="0" x="0">c</tspan></text>
            <text transform="translate(169.66 54.63)" style="isolation:isolate" fill="#f6f6f6" font-family="Montserrat-SemiBold,Montserrat" font-size="20.1" font-weight="600"><tspan y="0" x="0">tion</tspan></text>
        </g>
        <g style="isolation:isolate">
            <text transform="translate(38.07 169.01)" style="isolation:isolate" fill="#f6f6f6" font-family="Montserrat-Medium,Montserrat" font-size="16" font-weight="500" letter-spacing="-.03em"><tspan y="0" x="0">A</tspan></text>
            <text transform="translate(49.35 169.01)" style="isolation:isolate" fill="#f6f6f6" letter-spacing="-.02em" font-family="Montserrat-Medium,Montserrat" font-size="16" font-weight="500"><tspan y="0" x="0">v</tspan></text>
            <text transform="translate(58.05 169.01)" style="isolation:isolate" fill="#f6f6f6" font-family="Montserrat-Medium,Montserrat" font-size="16" font-weight="500"><tspan y="0" x="0">e</tspan></text>
            <text transform="translate(67.85 169.01)" style="isolation:isolate" fill="#f6f6f6" font-family="Montserrat-Medium,Montserrat" font-size="16" font-weight="500" letter-spacing="-.05em"><tspan y="0" x="0">r</tspan></text>
            <text transform="translate(73.67 169.01)" style="isolation:isolate" fill="#f6f6f6" font-family="Montserrat-Medium,Montserrat" font-size="16" font-weight="500"><tspan y="0" x="0">age cus</tspan></text>
            <text transform="translate(136.36 169.01)" style="isolation:isolate" fill="#f6f6f6" font-family="Montserrat-Medium,Montserrat" font-size="16" font-weight="500" letter-spacing="-.02em"><tspan y="0" x="0">t</tspan></text>
            <text transform="translate(142.69 169.01)" style="isolation:isolate" fill="#f6f6f6" font-family="Montserrat-Medium,Montserrat" font-size="16" font-weight="500"><tspan y="0" x="0">omer </tspan></text>
            <text transform="translate(45.65 188.21)" style="isolation:isolate" fill="#f6f6f6" font-family="Montserrat-Medium,Montserrat" font-size="16" font-weight="500" letter-spacing="-.05em"><tspan y="0" x="0">r</tspan></text>
            <text transform="translate(51.47 188.21)" style="isolation:isolate" fill="#f6f6f6" font-family="Montserrat-Medium,Montserrat" font-size="16" font-weight="500"><tspan y="0" x="0">ating (out of 10)</tspan></text>
        </g>
    </g>
</svg>
