<?xml version="1.0" encoding="UTF-8"?>
<svg data-bbox="1 1 222.19 222.19" viewBox="0 0 224.19 224.19" xmlns="http://www.w3.org/2000/svg" data-type="ugc">
    <g>
        <path fill="#f9edf0" opacity=".07" d="M223.19 62.75v98.69c0 34.104-27.646 61.75-61.75 61.75H62.75C28.646 223.19 1 195.544 1 161.44V62.75C1 28.646 28.646 1 62.75 1h98.69c34.104 0 61.75 27.646 61.75 61.75"/>
        <path fill="none" stroke="#d9d9d9" stroke-miterlimit="10" stroke-width="2" d="M223.19 62.75v98.69c0 34.104-27.646 61.75-61.75 61.75H62.75C28.646 223.19 1 195.544 1 161.44V62.75C1 28.646 28.646 1 62.75 1h98.69c34.104 0 61.75 27.646 61.75 61.75z"/>
        <text transform="translate(55.03 137.44)" style="font-variation-settings:&quot;wght&quot;800,&quot;opsz&quot;11" font-family="BodoniModa-ExtraBold,&quot;Bodoni Moda&quot;" font-size="76.68" font-weight="700" fill="#f6f6f6"><tspan y="0" x="0">9,5</tspan></text>
        <text transform="translate(13.46 54.63)" fill="#f6f6f6" font-family="Montserrat-SemiBold,Montserrat" font-size="20.1" font-weight="600"><tspan y="0" x="0">O</tspan><tspan y="0" x="16.93" letter-spacing="-.01em">v</tspan><tspan y="0" x="28.25">e</tspan><tspan y="0" x="40.75" letter-spacing="-.04em">r</tspan><tspan y="0" x="48.33" letter-spacing="0">all satis</tspan><tspan y="0" x="124.94" letter-spacing="-.01em">f</tspan><tspan y="0" x="132.16" letter-spacing="0">a</tspan><tspan y="0" x="144.38" letter-spacing="0">c</tspan><tspan y="0" x="156.2">tion</tspan></text>
        <text transform="translate(38.07 169.01)" fill="#f6f6f6" font-family="Montserrat-Medium,Montserrat" font-size="16" font-weight="500"><tspan y="0" x="0" letter-spacing="-.03em">A</tspan><tspan y="0" x="11.28" letter-spacing="-.02em">v</tspan><tspan y="0" x="19.98">e</tspan><tspan y="0" x="29.78" letter-spacing="-.05em">r</tspan><tspan y="0" x="35.6">age cus</tspan><tspan y="0" x="98.29" letter-spacing="-.02em">t</tspan><tspan y="0" x="104.62">omer </tspan><tspan y="19.2" x="7.58" letter-spacing="-.05em">r</tspan><tspan y="19.2" x="13.4" letter-spacing="0">ating (put of 10)</tspan></text>
    </g>
</svg>
