<?xml version="1.0" encoding="UTF-8"?>
<svg data-bbox="1 1 222.19 222.19" viewBox="0 0 224.19 224.19" xmlns="http://www.w3.org/2000/svg" data-type="ugc">
    <g>
        <path fill="#f9edf0" opacity=".07" d="M223.19 62.75v98.69c0 34.104-27.646 61.75-61.75 61.75H62.75C28.646 223.19 1 195.544 1 161.44V62.75C1 28.646 28.646 1 62.75 1h98.69c34.104 0 61.75 27.646 61.75 61.75"/>
        <path fill="none" stroke="#d9d9d9" stroke-miterlimit="10" stroke-width="2" d="M223.19 62.75v98.69c0 34.104-27.646 61.75-61.75 61.75H62.75C28.646 223.19 1 195.544 1 161.44V62.75C1 28.646 28.646 1 62.75 1h98.69c34.104 0 61.75 27.646 61.75 61.75z"/>
        <text transform="translate(10.75 137.44)" style="font-variation-settings:&quot;wght&quot;800,&quot;opsz&quot;11" font-family="BodoniModa-ExtraBold,&quot;Bodoni Moda&quot;" font-size="76.68" font-weight="700" fill="#f6f6f6"><tspan y="0" x="0">+20K</tspan></text>
        <text transform="translate(27.92 54.36)" fill="#f6f6f6" font-family="Montserrat-SemiBold,Montserrat" font-size="21.16" font-weight="600"><tspan y="0" x="0" letter-spacing="-.01em">T</tspan><tspan y="0" x="12.46">rus</tspan><tspan y="0" x="46.66" letter-spacing="-.02em">t</tspan><tspan y="0" x="55.25">ed </tspan><tspan y="0" x="88.79" letter-spacing="-.01em">b</tspan><tspan y="0" x="102.99">y </tspan><tspan y="0" x="121.06" letter-spacing="-.01em">ov</tspan><tspan y="0" x="146.31">er</tspan></text>
        <text transform="translate(73.61 169.01)" fill="#f6f6f6" font-family="Montserrat-Medium,Montserrat" font-size="16" font-weight="500"><tspan y="0" x="0" letter-spacing="0">A</tspan><tspan y="0" x="11.63">esthetic </tspan><tspan y="19.2" x="-14.69">p</tspan><tspan y="19.2" x="-3.78" letter-spacing="-.01em">r</tspan><tspan y="19.2" x="2.59">o</tspan><tspan y="19.2" x="12.75" letter-spacing="0">f</tspan><tspan y="19.2" x="18.27" letter-spacing="0">essionals</tspan></text>
    </g>
</svg>
