<svg preserveAspectRatio="xMidYMid meet" data-bbox="10 10 180 180" xmlns="http://www.w3.org/2000/svg" viewBox="10 10 180 180" height="200" width="200" data-type="shape" role="presentation" aria-hidden="true" aria-label="">
    <g>
        <path d="M100 10c-49.71 0-90 40.29-90 90s40.29 90 90 90 90-40.29 90-90-40.29-90-90-90M89.16 47.79c0-1.71 1.39-3.1 3.1-3.1h15.47c1.71 0 3.1 1.39 3.1 3.1v8.66H89.15v-8.66zm30.27 101.79a5.73 5.73 0 0 1-5.73 5.73H86.3a5.73 5.73 0 0 1-5.73-5.73V78.82c0-3.44 1.78-6.63 4.71-8.44l3.88-2.39v-8.17h21.68v8.17l3.88 2.39c2.93 1.8 4.71 5 4.71 8.44z"></path>
    </g>
</svg>