<svg width="18" height="18" viewBox="0 0 18 18" fill="none" xmlns="http://www.w3.org/2000/svg">
<g clip-path="url(#clip0_209_422)">
<path d="M15.75 18.001H14.25V14.2187C14.2494 13.6307 14.0156 13.067 13.5998 12.6512C13.184 12.2354 12.6203 12.0016 12.0322 12.001H5.96775C5.37975 12.0016 4.816 12.2354 4.40022 12.6512C3.98444 13.067 3.7506 13.6307 3.75 14.2187V18.001H2.25V14.2187C2.25119 13.2331 2.64326 12.2882 3.34022 11.5912C4.03717 10.8942 4.98211 10.5022 5.96775 10.501H12.0322C13.0179 10.5022 13.9628 10.8942 14.6598 11.5912C15.3567 12.2882 15.7488 13.2331 15.75 14.2187V18.001Z" fill="white"/>
<path d="M9 9C8.10999 9 7.23996 8.73608 6.49994 8.24162C5.75991 7.74715 5.18314 7.04434 4.84254 6.22208C4.50195 5.39981 4.41283 4.49501 4.58647 3.6221C4.7601 2.74918 5.18869 1.94736 5.81802 1.31802C6.44736 0.688685 7.24918 0.260102 8.1221 0.0864683C8.99501 -0.0871652 9.89981 0.00194979 10.7221 0.342544C11.5443 0.683138 12.2471 1.25991 12.7416 1.99994C13.2361 2.73996 13.5 3.60999 13.5 4.5C13.4988 5.69311 13.0243 6.83701 12.1807 7.68067C11.337 8.52432 10.1931 8.99881 9 9ZM9 1.5C8.40666 1.5 7.82664 1.67595 7.33329 2.00559C6.83994 2.33524 6.45543 2.80377 6.22836 3.35195C6.0013 3.90013 5.94189 4.50333 6.05765 5.08527C6.1734 5.66722 6.45912 6.20177 6.87868 6.62132C7.29824 7.04088 7.83279 7.3266 8.41473 7.44236C8.99667 7.55811 9.59987 7.4987 10.1481 7.27164C10.6962 7.04458 11.1648 6.66006 11.4944 6.16671C11.8241 5.67337 12 5.09335 12 4.5C12 3.70435 11.6839 2.94129 11.1213 2.37868C10.5587 1.81607 9.79565 1.5 9 1.5Z" fill="white"/>
</g>
<defs>
<clipPath id="clip0_209_422">
<rect width="18" height="18" fill="white"/>
</clipPath>
</defs>
</svg>
